<svg width="63" height="77" viewBox="0 0 63 77" fill="none" xmlns="http://www.w3.org/2000/svg">
<path d="M52.6667 41.2902C52.6667 55.5124 43.3333 62.6235 32.24 66.748C31.6591 66.9579 31.0281 66.9479 30.4533 66.7195C19.3333 62.6235 10 55.5124 10 41.2902V21.3791C10 20.6247 10.281 19.9012 10.781 19.3677C11.2811 18.8343 11.9594 18.5346 12.6667 18.5346C18 18.5346 24.6667 15.1213 29.3067 10.7977C29.8716 10.2829 30.5903 10 31.3333 10C32.0764 10 32.7951 10.2829 33.36 10.7977C38.0267 15.1497 44.6667 18.5346 50 18.5346C50.7072 18.5346 51.3855 18.8343 51.8856 19.3677C52.3857 19.9012 52.6667 20.6247 52.6667 21.3791V41.2902Z" stroke="black" stroke-width="4" stroke-linecap="round" stroke-linejoin="round"/>
<path d="M42.9611 48.6492C43.6011 50.1292 44.8811 50.1292 44.8811 50.8892V50.9692C44.8811 51.2892 44.6011 51.4492 44.1211 51.4492H38.4811C38.0011 51.4492 37.7211 51.2892 37.7211 50.9692V50.8892C37.7211 50.1292 39.6011 50.0492 39.0811 48.6492L37.1611 43.9292H24.2011L22.4411 48.6492C21.8811 50.0492 23.8011 50.1292 23.8011 50.8892V50.9692C23.8011 51.2892 23.4811 51.4492 22.9611 51.4492H19.1611C18.6411 51.4492 18.3611 51.2892 18.3611 50.9692V50.8892C18.3611 50.1292 19.6811 50.1692 20.2411 48.6492L29.1211 25.9692C29.6011 24.7692 27.8811 24.2492 27.8811 23.6092V23.4892C27.8811 23.2492 28.0411 23.0492 28.4411 23.0492H30.7611C31.7211 23.0492 32.2411 23.4092 32.6411 24.3692L42.9611 48.6492ZM24.8811 42.2092H36.4811L30.4811 27.3692L24.8811 42.2092Z" fill="black"/>
</svg>
